<?xml version="1.0" standalone="no"?>
<!DOCTYPE svg PUBLIC "-//W3C//DTD SVG 20010904//EN"
 "http://www.w3.org/TR/2001/REC-SVG-20010904/DTD/svg10.dtd">
<svg version="1.0" xmlns="http://www.w3.org/2000/svg"
 width="1350.000000pt" height="1350.000000pt" viewBox="0 0 1350.000000 1350.000000"
 preserveAspectRatio="xMidYMid meet">

<g transform="translate(0.000000,1350.000000) scale(0.100000,-0.100000)"
fill="#000000" stroke="none">
<path d="M9106 9373 c-126 -249 -176 -340 -195 -351 -14 -8 -552 -240 -1196
-516 l-1170 -501 0 -1370 0 -1370 1170 -501 c644 -276 1182 -508 1196 -516 19
-11 69 -102 195 -351 l169 -337 343 0 342 0 0 1243 0 1243 33 19 c54 32 148
126 192 195 65 99 95 181 108 288 20 172 -16 328 -107 465 -40 59 -133 155
-188 192 l-38 26 0 1239 0 1240 -342 0 -343 0 -169 -337z" fill="white"/>
<path d="M3810 6635 l0 -1365 678 -2 677 -3 3 -852 2 -853 345 0 345 0 0 2220
0 2220 -1025 0 -1025 0 0 -1365z" fill="white"/>
</g>
</svg>
