<?xml version="1.0" standalone="no"?>
<!DOCTYPE svg PUBLIC "-//W3C//DTD SVG 20010904//EN"
 "http://www.w3.org/TR/2001/REC-SVG-20010904/DTD/svg10.dtd">
<svg version="1.0" xmlns="http://www.w3.org/2000/svg"
 width="1350.000000pt" height="1350.000000pt" viewBox="0 0 1350.000000 1350.000000"
 preserveAspectRatio="xMidYMid meet">

<g transform="translate(0.000000,1350.000000) scale(0.100000,-0.100000)"
fill="#000000" stroke="none">
<path d="M6685 11589 c-261 -20 -591 -75 -870 -146 -827 -209 -1577 -620
-2180 -1194 -460 -438 -739 -803 -1017 -1324 -285 -536 -440 -1037 -550 -1780
-18 -127 -18 -963 0 -1090 42 -283 78 -473 123 -655 149 -605 392 -1140 753
-1660 175 -253 339 -442 618 -715 394 -386 738 -635 1213 -875 532 -270 969
-407 1610 -507 178 -27 186 -27 650 -28 505 0 489 -1 860 61 845 142 1660 519
2335 1079 207 172 531 503 702 716 562 701 907 1484 1048 2374 43 274 50 380
50 755 0 385 -8 493 -56 784 -145 883 -485 1649 -1042 2346 -186 232 -528 575
-756 758 -441 354 -893 612 -1420 807 -328 122 -721 216 -1130 271 -61 8 -250
19 -421 24 -345 11 -364 11 -520 -1z m700 -1009 c487 -31 1041 -189 1500 -429
379 -198 659 -405 976 -721 251 -250 428 -473 606 -765 293 -480 481 -1042
550 -1640 23 -205 23 -623 0 -835 -68 -613 -255 -1165 -564 -1669 -88 -143
-233 -351 -244 -351 -5 0 -55 42 -112 92 -94 86 -4374 4359 -5157 5150 l-345
349 25 20 c148 118 397 273 615 384 464 237 961 376 1510 424 103 9 420 4 640
-9z m-698 -4332 c1536 -1536 2793 -2798 2793 -2804 0 -15 -137 -117 -270 -201
-419 -266 -830 -439 -1291 -543 -589 -133 -1206 -129 -1809 11 -623 146 -1195
439 -1694 869 -128 110 -378 367 -477 490 -42 52 -113 146 -157 208 -870 1216
-981 2851 -283 4177 122 231 354 585 384 585 6 0 1267 -1256 2804 -2792z"/>
</g>
</svg>
